# xmcd
#
# Track frame offsets: 
#        150
#        17345
#        33800
#        52051
#        70880
#        92182
#
# Disc length: 1546 seconds
#
# Revision: 0
# Processed by: cddbd v1.5.2PL0 Copyright (c) Steve Scherf et al.
# Submitted via: ExactAudioCopyFreeDBPlugin 1.0
#
DISCID=44060806
DTITLE=Kat Baloun - KAT BALOUN and BLUES POWER
DYEAR=2016
DGENRE=Blues
TTITLE0=Kat Baloun and blues power - keep playing that roch and roll
TTITLE1=Kat Baloun and blues power - I just want to make love to you
TTITLE2=Kat Baloun and blues power - killing floor
TTITLE3=Kat Baloun and blues power - Berlin Blues
TTITLE4=Kat Baloun and blues power - beast of burden
TTITLE5=Kat Baloun and blues power - some kind of wonderful
EXTD=
EXTT0=
EXTT1=
EXTT2=
EXTT3=
EXTT4=
EXTT5=
PLAYORDER=
